<svg width="29" height="14" viewBox="0 0 29 14" fill="none" xmlns="http://www.w3.org/2000/svg">
<g opacity="0.7">
<path d="M17.3712 11L16.6583 9.01758H13.9288L13.2305 11H12.0001L14.671 3.83203H15.9405L18.6114 11H17.3712ZM16.3506 8.01172L15.6817 6.06836C15.6329 5.93815 15.5645 5.73307 15.4766 5.45312C15.392 5.17318 15.3334 4.9681 15.3008 4.83789C15.213 5.23828 15.0844 5.67611 14.9151 6.15137L14.2706 8.01172H16.3506ZM18.963 8.80762V7.83105H21.4727V8.80762H18.963ZM25.0323 8.13867L23.2647 11H21.9317L23.9434 7.87012C23.032 7.55436 22.5762 6.8903 22.5762 5.87793C22.5762 5.22363 22.8025 4.72396 23.2549 4.37891C23.7074 4.03385 24.3731 3.86133 25.252 3.86133H27.3956V11H26.2237V8.13867H25.0323ZM26.2237 4.83789H25.296C24.8044 4.83789 24.4268 4.92578 24.1631 5.10156C23.9027 5.27409 23.7725 5.55729 23.7725 5.95117C23.7725 6.33529 23.8995 6.63477 24.1534 6.84961C24.4073 7.06445 24.8012 7.17188 25.335 7.17188H26.2237V4.83789Z" fill="#000000"/>
<g clip-path="url(#clip0_211_4866)">
<path d="M2 7L2.705 7.705L5.5 4.915V11H6.5V4.915L9.29 7.71L10 7L6 3L2 7Z" fill="#000000"/>
</g>
</g>
<defs>
<clipPath id="clip0_211_4866">
<rect width="12" height="12" fill="white" transform="translate(12 13) rotate(180)"/>
</clipPath>
</defs>
</svg>
